<?xml version="1.0" encoding="utf-8"?>
<!-- Svg Vector Icons : http://www.onlinewebfonts.com/icon -->
<!DOCTYPE svg PUBLIC "-//W3C//DTD SVG 1.1//EN" "http://www.w3.org/Graphics/SVG/1.1/DTD/svg11.dtd">
<svg version="1.1" xmlns="http://www.w3.org/2000/svg" xmlns:xlink="http://www.w3.org/1999/xlink" x="0px" y="0px" viewBox="0 0 1000 1000" enable-background="new 0 0 1000 1000" xml:space="preserve">
<metadata> Svg Vector Icons : http://www.onlinewebfonts.com/icon </metadata>
<g><path d="M570,990H430V850H570V990z M717.1,451l-63,63c-56,49-84,91-84,196H430v-35c0-77,28-147,84-196l84-91c28-21,42-56,42-98c0-77-63-140-140.1-140c-77,0-140,63-140,140h-140c0-154,126-280,280.1-280c154.1,0,280.1,126,280.1,280C780.1,353,752.1,409,717.1,451z"/></g>
</svg>