<svg xmlns="http://www.w3.org/2000/svg" viewBox="0 0 51 51"><defs><style>.cls-1{fill:#f2f2f2;stroke:#ccc;stroke-miterlimit:10;}.cls-2{fill:#333;}</style></defs><title>light_g_1</title><g id="Layer_2" data-name="Layer 2"><g id="Layer_1-2" data-name="Layer 1"><rect class="cls-1" x="0.5" y="0.5" width="50" height="50"/><path class="cls-2" d="M13.17,25.72c0-9.8,6.75-15.38,14.58-15.38a13.19,13.19,0,0,1,9.54,3.87l-4,4.95A7.32,7.32,0,0,0,28,17c-4,0-6.93,3.15-6.93,8.45,0,5.49,2.43,8.55,7.65,8.55A4.38,4.38,0,0,0,31,33.46V29.41H26.67v-6.3H37.83v14a14.77,14.77,0,0,1-9.9,3.6C19.74,40.66,13.17,35.71,13.17,25.72Z"/></g></g></svg>